<svg width="24" height="24" viewBox="0 0 24 24" fill="none" xmlns="http://www.w3.org/2000/svg">
<path fill-rule="evenodd" clip-rule="evenodd" d="M6.549 5.01293C6.24105 5.01293 5.94002 5.10425 5.68397 5.27533C5.42793 5.44642 5.22836 5.68959 5.11052 5.97409C4.99267 6.2586 4.96184 6.57166 5.02191 6.87368C5.08199 7.17571 5.23028 7.45314 5.44803 7.67089C5.66578 7.88865 5.94321 8.03694 6.24524 8.09701C6.54727 8.15709 6.86033 8.12626 7.14483 8.00841C7.42934 7.89056 7.67251 7.691 7.84359 7.43495C8.01468 7.17891 8.106 6.87788 8.106 6.56993C8.106 6.15699 7.94195 5.76096 7.64996 5.46896C7.35797 5.17697 6.96194 5.01293 6.549 5.01293Z" fill="black"/>
<path fill-rule="evenodd" clip-rule="evenodd" d="M17.4505 12.7496L21.2899 16.589L22.7041 15.1748L18.7991 11.2698C18.4414 10.9127 17.956 10.7115 17.4505 10.7115C16.945 10.7115 16.4602 10.9121 16.1025 11.2692L10.6335 16.7382L7.89204 13.9978C7.53424 13.6401 7.04894 13.439 6.543 13.439C6.03703 13.439 5.55179 13.64 5.19398 13.9977L1.29298 17.8977L2.70701 19.3121L6.543 15.4771L9.28501 18.2182C9.64274 18.5753 10.128 18.7763 10.6335 18.7763C11.139 18.7763 11.6238 18.5758 11.9815 18.2186L17.4505 12.7496Z" fill="black"/>
<path fill-rule="evenodd" clip-rule="evenodd" d="M5.56792 3.00293C4.88899 3.00295 4.23788 3.27266 3.7578 3.75274C3.27771 4.23283 3.008 4.88398 3.008 5.56293V18.4369C3.008 19.1159 3.27771 19.767 3.7578 20.2471C4.2379 20.7272 4.88904 20.9969 5.568 20.9969H18.44C19.1189 20.9969 19.7701 20.7272 20.2502 20.2471C20.7303 19.767 21 19.1159 21 18.4369V5.56393C21 4.88498 20.7303 4.23383 20.2502 3.75374C19.7701 3.27364 19.1189 3.00393 18.44 3.00393L5.56792 3.00293ZM2.34359 2.33852C3.19875 1.48336 4.35861 1.00293 5.568 1.00293L18.44 1.00393C19.6494 1.00395 20.8093 1.48438 21.6644 2.33952C22.5196 3.19469 23 4.35454 23 5.56393V18.4369C23 19.6463 22.5196 20.8062 21.6644 21.6613C20.8092 22.5165 19.6494 22.9969 18.44 22.9969H5.568C4.35861 22.9969 3.19875 22.5165 2.34359 21.6613C1.48842 20.8062 1.008 19.6463 1.008 18.4369V5.56293C1.008 4.35354 1.48842 3.19369 2.34359 2.33852Z" fill="black"/>
</svg>
