<svg width="26" height="25" viewBox="0 0 26 25" fill="none" xmlns="http://www.w3.org/2000/svg">
<path d="M16.792 4.90397C18.1064 4.97664 19.3389 5.56587 20.2208 6.54328C21.1026 7.52068 21.5624 8.80701 21.5 10.122C21.5 13.194 18.848 15.081 16.303 17.344C13.791 19.587 12.438 20.813 12 21.096C11.523 20.787 9.85701 19.273 7.69701 17.344C5.14101 15.072 2.50001 13.167 2.50001 10.122C2.43758 8.80701 2.8974 7.52068 3.77927 6.54328C4.66114 5.56587 5.89358 4.97664 7.20801 4.90397C7.93616 4.8819 8.65757 5.04915 9.30173 5.38937C9.94588 5.72959 10.4907 6.23113 10.883 6.84497C11.723 8.01997 11.863 8.60797 12.003 8.60797C12.143 8.60797 12.281 8.01997 13.113 6.84197C13.5031 6.22529 14.0481 5.72176 14.6937 5.38169C15.3393 5.04161 16.0628 4.87688 16.792 4.90397ZM16.792 2.90397C15.8839 2.8749 14.981 3.05106 14.1505 3.41932C13.3199 3.78759 12.5831 4.33848 11.995 5.03097C11.4074 4.3405 10.6721 3.79088 9.84356 3.42272C9.01499 3.05457 8.1143 2.87729 7.20801 2.90397C5.36288 2.97612 3.62139 3.77596 2.36435 5.12857C1.10731 6.48118 0.437007 8.27651 0.500013 10.122C0.500013 13.732 3.05001 15.949 5.51501 18.092C5.79801 18.338 6.08401 18.586 6.36801 18.839L7.39501 19.757C8.51505 20.8227 9.68928 21.8301 10.913 22.775C11.2368 22.9846 11.6143 23.0962 12 23.0962C12.3857 23.0962 12.7632 22.9846 13.087 22.775C14.3497 21.8012 15.5601 20.7614 16.713 19.66L17.635 18.836C17.928 18.576 18.225 18.317 18.52 18.062C20.854 16.037 23.5 13.742 23.5 10.122C23.563 8.27651 22.8927 6.48118 21.6357 5.12857C20.3786 3.77596 18.6371 2.97612 16.792 2.90397Z" fill="black"/>
<rect x="16.5" y="0.5" width="9" height="9" rx="4.5" fill="#FF3040" stroke="white"/>
</svg>
