<svg width="20" height="20" viewBox="0 0 20 20" fill="none" xmlns="http://www.w3.org/2000/svg">
<path d="M2.49999 5.41498C2.60944 5.41487 2.71783 5.43638 2.81894 5.47828C2.92004 5.52018 3.01188 5.58165 3.08916 5.65915L9.99999 12.5725L16.9108 5.65915C16.9877 5.57955 17.0797 5.51607 17.1813 5.47239C17.283 5.42872 17.3923 5.40573 17.503 5.40477C17.6136 5.40381 17.7234 5.42489 17.8258 5.46679C17.9282 5.5087 18.0212 5.57057 18.0995 5.64882C18.1777 5.72706 18.2396 5.8201 18.2815 5.92252C18.3234 6.02493 18.3445 6.13466 18.3435 6.24531C18.3426 6.35596 18.3196 6.46531 18.2759 6.56698C18.2322 6.66865 18.1688 6.76061 18.0892 6.83748L10.5892 14.3408C10.4298 14.4912 10.2191 14.575 9.99999 14.575C9.78092 14.575 9.57014 14.4912 9.41083 14.3408L1.91083 6.83748C1.79432 6.72094 1.71498 6.57247 1.68284 6.41084C1.6507 6.24921 1.6672 6.08168 1.73026 5.92943C1.79332 5.77718 1.9001 5.64705 2.03711 5.55548C2.17412 5.46391 2.3352 5.41501 2.49999 5.41498Z" fill="black"/>
</svg>
