<svg width="24" height="24" viewBox="0 0 24 24" fill="none" xmlns="http://www.w3.org/2000/svg">
<path fill-rule="evenodd" clip-rule="evenodd" d="M2.42157 3.37463C3.17172 2.62449 4.18913 2.20306 5.25 2.20306H12.202C12.7543 2.20306 13.202 2.65077 13.202 3.20306C13.202 3.75534 12.7543 4.20306 12.202 4.20306H5.25C4.71957 4.20306 4.21086 4.41377 3.83579 4.78885C3.46071 5.16392 3.25 5.67263 3.25 6.20306V18.7501C3.25 19.2805 3.46071 19.7892 3.83579 20.1643C4.21086 20.5393 4.71957 20.7501 5.25 20.7501H17.797C18.3274 20.7501 18.8361 20.5393 19.2112 20.1643C19.5863 19.7892 19.797 19.2805 19.797 18.7501V11.7981C19.797 11.2458 20.2447 10.7981 20.797 10.7981C21.3493 10.7981 21.797 11.2458 21.797 11.7981V18.7501C21.797 19.8109 21.3756 20.8283 20.6254 21.5785C19.8753 22.3286 18.8579 22.7501 17.797 22.7501H5.25C4.18913 22.7501 3.17172 22.3286 2.42157 21.5785C1.67143 20.8283 1.25 19.8109 1.25 18.7501V6.20306C1.25 5.14219 1.67143 4.12478 2.42157 3.37463Z" fill="black"/>
<path fill-rule="evenodd" clip-rule="evenodd" d="M19.609 2.75C19.5542 2.75 19.5 2.76079 19.4494 2.78174C19.3988 2.8027 19.3529 2.83342 19.3141 2.87215L7.774 14.4123V16.2261H9.58781L21.1279 4.68693C21.1666 4.64821 21.1974 4.60223 21.2183 4.55164C21.2393 4.50105 21.2501 4.44683 21.2501 4.39206C21.2501 4.33729 21.2393 4.28307 21.2183 4.23247C21.1974 4.18188 21.1666 4.13591 21.1279 4.09719L19.9039 2.87215C19.8652 2.83342 19.8192 2.8027 19.7686 2.78174C19.718 2.76079 19.6638 2.75 19.609 2.75ZM18.684 0.933997C18.9773 0.812523 19.2916 0.75 19.609 0.75C19.9264 0.75 20.2407 0.812522 20.534 0.933997C20.8272 1.05547 21.0937 1.23352 21.3181 1.45797L22.5421 2.68293C22.7664 2.90731 22.9446 3.17396 23.0661 3.46708C23.1875 3.76034 23.2501 4.07465 23.2501 4.39206C23.2501 4.70947 23.1875 5.02378 23.0661 5.31704C22.9446 5.6103 22.7665 5.87675 22.5421 6.10119L10.7091 17.9332C10.5215 18.1207 10.2672 18.2261 10.002 18.2261H6.774C6.22172 18.2261 5.774 17.7783 5.774 17.2261V13.9981C5.774 13.7328 5.87936 13.4785 6.06689 13.291L17.8999 1.45797C18.1243 1.23353 18.3908 1.05547 18.684 0.933997Z" fill="black"/>
<path fill-rule="evenodd" clip-rule="evenodd" d="M16.141 3.21684C16.5316 2.82638 17.1648 2.82648 17.5552 3.21706L20.7832 6.44606C21.1737 6.83665 21.1736 7.46981 20.783 7.86028C20.3924 8.25074 19.7592 8.25064 19.3688 7.86006L16.1408 4.63106C15.7503 4.24047 15.7504 3.60731 16.141 3.21684Z" fill="black"/>
</svg>
