<svg width="24" height="24" viewBox="0 0 24 24" fill="none" xmlns="http://www.w3.org/2000/svg">
<path fill-rule="evenodd" clip-rule="evenodd" d="M12.001 2.50488C6.75427 2.50488 2.50098 6.75818 2.50098 12.0049C2.50098 17.2516 6.75427 21.5049 12.001 21.5049C17.2477 21.5049 21.501 17.2516 21.501 12.0049C21.501 6.75818 17.2477 2.50488 12.001 2.50488ZM0.500977 12.0049C0.500977 5.65361 5.6497 0.504883 12.001 0.504883C18.3523 0.504883 23.501 5.65361 23.501 12.0049C23.501 18.3562 18.3523 23.5049 12.001 23.5049C5.6497 23.5049 0.500977 18.3562 0.500977 12.0049Z" fill="black"/>
<path d="M11.819 8.95888C12.5093 8.95888 13.069 8.39924 13.069 7.70888C13.069 7.01853 12.5093 6.45888 11.819 6.45888C11.1286 6.45888 10.569 7.01853 10.569 7.70888C10.569 8.39924 11.1286 8.95888 11.819 8.95888Z" fill="black"/>
<path fill-rule="evenodd" clip-rule="evenodd" d="M9.56898 16.7769C9.56898 16.2246 10.0167 15.7769 10.569 15.7769H13.432C13.9843 15.7769 14.432 16.2246 14.432 16.7769C14.432 17.3292 13.9843 17.7769 13.432 17.7769H10.569C10.0167 17.7769 9.56898 17.3292 9.56898 16.7769Z" fill="black"/>
<path fill-rule="evenodd" clip-rule="evenodd" d="M9.56898 11.0499C9.56898 10.4976 10.0167 10.0499 10.569 10.0499H12C12.5523 10.0499 13 10.4976 13 11.0499V16.7769C13 17.3292 12.5523 17.7769 12 17.7769C11.4477 17.7769 11 17.3292 11 16.7769V12.0499H10.569C10.0167 12.0499 9.56898 11.6022 9.56898 11.0499Z" fill="black"/>
</svg>
