<svg width="24" height="24" viewBox="0 0 24 24" fill="none" xmlns="http://www.w3.org/2000/svg">
<path fill-rule="evenodd" clip-rule="evenodd" d="M4 4C2.89543 4 2 4.89543 2 6V18C2 19.1046 2.89543 20 4 20H14.999C16.1036 20 16.999 19.1046 16.999 18V9.15023C16.999 9.14761 16.999 9.145 16.999 9.14239V6C16.999 4.89543 16.1036 4 14.999 4H4ZM18.999 6.89361V6C18.999 3.79086 17.2081 2 14.999 2H4C1.79086 2 0 3.79086 0 6V18C0 20.2091 1.79086 22 4 22H14.999C17.2081 22 18.999 20.2091 18.999 18V17.1061L19.8232 17.8516C20.182 18.1761 20.6275 18.3896 21.1052 18.466C21.583 18.5424 22.0726 18.4785 22.5148 18.2822C22.9569 18.0858 23.3326 17.7653 23.5962 17.3597C23.8598 16.9541 24.0001 16.4807 24 15.997C24 15.9969 24 15.9971 24 15.997V8.00324M18.999 14.4092L21.1647 16.3682C21.1646 16.3682 21.1647 16.3683 21.1647 16.3682C21.2364 16.433 21.3256 16.4758 21.421 16.4911C21.5166 16.5064 21.6145 16.4936 21.703 16.4543C21.7914 16.415 21.8665 16.351 21.9192 16.2698C21.972 16.1887 22 16.094 22 15.9972V8.003C22 7.90624 21.972 7.81131 21.9192 7.73018C21.8665 7.64904 21.7914 7.58496 21.703 7.54568C21.6145 7.5064 21.5166 7.49363 21.421 7.50891C21.3255 7.52419 21.2365 7.56686 21.1647 7.63174C21.1647 7.63175 21.1647 7.63173 21.1647 7.63174L18.999 9.58997V14.4092ZM18.999 6.89361L19.8233 6.14826C20.1822 5.82379 20.6275 5.6104 21.1052 5.534C21.583 5.45761 22.0726 5.52147 22.5148 5.71785C22.9569 5.91422 23.3326 6.23467 23.5962 6.64034C23.8598 7.04593 24.0001 7.51952 24 8.00324" fill="black"/>
</svg>
